# xmcd
#
# Track frame offsets: 
#        150
#        8810
#        20997
#        33808
#        43644
#        54349
#        68961
#        81047
#        104029
#        112508
#        129747
#        139651
#        147245
#        158649
#        172214
#        180540
#        207942
#        216436
#        231956
#        245454
#
# Disc length: 3435 seconds
#
# Revision: 0
# Processed by: cddbd v1.5.2PL0 Copyright (c) Steve Scherf et al.
# Submitted via: ExactAudioCopyFreeDBPlugin 1.0
#
DISCID=1c0d6914
DTITLE=Odetta - Odetta sings the blues
DYEAR=1900
DGENRE=Blues
TTITLE0=Santy Anno
TTITLE1=If I had a ribbon bow
TTITLE2=Muleskinner blues
TTITLE3=Another man done gone
TTITLE4=Shame and scandal
TTITLE5=Jack O'Diamonds
TTITLE6='Buked and scorned
TTITLE7=Easy rider
TTITLE8=Joshua
TTITLE9=Hound dog
TTITLE10=Glory, glory
TTITLE11=Alabama bound
TTITLE12=Been in the pen
TTITLE13=Deep blue sea
TTITLE14=God's gonna cut you down
TTITLE15=Spiritual trilogy: Oh freedom, Come and go with me, I'm on my
TTITLE15=way
TTITLE16=He's got the whole world in his hands
TTITLE17=Take this hammer
TTITLE18=Deep river
TTITLE19=Chilly winds
EXTD=
EXTT0=
EXTT1=
EXTT2=
EXTT3=
EXTT4=
EXTT5=
EXTT6=
EXTT7=
EXTT8=
EXTT9=
EXTT10=
EXTT11=
EXTT12=
EXTT13=
EXTT14=
EXTT15=
EXTT16=
EXTT17=
EXTT18=
EXTT19=
PLAYORDER=
